<svg width="31" height="30" viewBox="0 0 31 30" fill="none" xmlns="http://www.w3.org/2000/svg">
<g clip-path="url(#clip0_1168_1878)">
<path d="M30.9995 4.20356C30.8477 4.50477 30.8636 4.84134 30.7847 5.16096C30.5615 6.10705 30.167 7.00721 29.6198 7.81961C29.0552 8.64225 28.5019 9.47519 27.8925 10.2662C27.1336 11.2523 26.0802 11.7649 24.8197 11.8672C24.2368 11.9144 23.6517 11.9409 23.0689 11.9821C22.2341 12.0455 21.592 12.4358 21.0737 13.064C18.6027 16.0506 16.1279 19.036 13.6493 22.0202C11.6994 24.372 9.74973 26.7233 7.80034 29.0741C7.39129 29.5682 6.88965 29.8989 6.22181 29.949C6.20131 29.949 6.18386 29.9843 6.16489 30.0028H5.55776C5.33464 29.8488 5.05764 29.8385 4.81403 29.7295C3.41004 29.105 2.86362 27.1165 4.0923 25.8999C9.0017 21.0289 13.8823 16.1262 18.7825 11.2493C19.5164 10.5202 19.8139 9.6976 19.716 8.6938C19.653 8.0516 19.584 7.40572 19.656 6.75615C19.7706 5.7251 20.2009 4.84576 20.9879 4.16084C22.0094 3.27266 22.9839 2.32483 24.1526 1.61119C25.6444 0.688652 27.402 0.255212 29.1667 0.37466C30.0372 0.426213 30.7566 1.11776 30.8864 1.9728C30.913 2.14807 30.8781 2.34103 30.9995 2.49569V4.20356ZM20.6601 9.11137C20.736 10.0688 20.3307 10.9945 19.5316 11.7906C14.6118 16.6955 9.69306 21.6006 4.77532 26.506C4.0665 27.2086 4.28506 28.3899 5.09482 28.8539C5.82945 29.2751 6.58077 29.0998 7.18714 28.3693C11.5944 23.0564 16.0016 17.7415 20.4089 12.4247C21.0251 11.6816 21.8045 11.2125 22.7843 11.0991C23.355 11.0343 23.931 11.0019 24.5055 10.9805C25.7326 10.9349 26.6866 10.426 27.3734 9.43395C27.8075 8.80869 28.2492 8.18858 28.6848 7.56332C29.8315 5.91879 30.2679 4.11371 29.9704 2.14366C29.8945 1.62813 29.5151 1.27315 28.9724 1.25989C27.4106 1.21055 25.9535 1.56479 24.6299 2.38006C23.5318 3.0554 22.6211 3.95463 21.655 4.78537C20.8612 5.46954 20.5167 6.36067 20.569 7.39099C20.5948 7.91241 20.6237 8.43161 20.6601 9.11137Z" fill="#DDDDDD"/>
<path d="M27.9696 30C27.0293 29.8284 26.473 29.1508 25.8887 28.5094C25.5676 28.1566 25.2367 27.8119 24.9104 27.4643L17.8746 19.9583C17.8336 19.9148 17.7934 19.8713 17.7531 19.8272C17.4951 19.5429 17.4738 19.2689 17.6939 19.0796C17.914 18.8904 18.1872 18.9486 18.4528 19.2321C21.3635 22.3361 24.2727 25.442 27.1803 28.5499C27.5431 28.9395 27.9628 29.1317 28.4932 29.0558C29.133 28.9645 29.5891 28.6324 29.7978 28.0248C30.0019 27.4297 29.8896 26.912 29.3979 26.4782C26.1396 23.5952 22.8846 20.7121 19.633 17.8291C19.5398 17.7539 19.4543 17.6701 19.378 17.5787C19.3085 17.4987 19.2726 17.3962 19.2775 17.2916C19.2824 17.1871 19.3278 17.0881 19.4045 17.0146C19.4716 16.9325 19.5686 16.8786 19.6756 16.8639C19.7825 16.8492 19.8911 16.875 19.979 16.9358C20.0545 16.9846 20.1251 17.04 20.19 17.1015C23.467 20.0017 26.7432 22.9024 30.0186 25.8036C30.8185 26.5121 31.009 27.3804 30.6576 28.3466C30.3146 29.2893 29.5952 29.8195 28.5744 29.944C28.5266 29.9499 28.472 29.9352 28.4538 30H27.9696Z" fill="#DDDDDD"/>
<path d="M5.25035 -0.000194764C5.45222 -0.00682297 5.69583 0.0992283 5.91136 0.275244C7.98015 1.96912 10.0679 3.6409 12.1094 5.3635C12.9905 6.10733 13.3373 7.13691 13.3669 8.26002C13.3806 8.79028 13.373 9.3198 13.3715 9.85006C13.3635 10.2335 13.4422 10.614 13.6022 10.9647C13.7622 11.3153 13.9995 11.6277 14.2973 11.8798C14.525 12.0838 14.7633 12.2856 14.9902 12.4947C15.2391 12.7238 15.2725 12.997 15.0843 13.1921C14.8961 13.3873 14.629 13.3836 14.3633 13.1575C14.1288 12.9557 13.9012 12.7473 13.6682 12.5441C12.8478 11.8289 12.4456 10.9386 12.4456 9.86847C12.4456 9.241 12.4737 8.61279 12.4107 7.98606C12.3242 7.12955 11.9667 6.41002 11.2822 5.8503C9.33379 4.25757 7.38719 2.66533 5.44235 1.07357C5.38847 1.02939 5.33307 0.985935 5.27615 0.946166C5.26147 0.932421 5.24396 0.921839 5.22478 0.91511C5.2056 0.908381 5.18516 0.905658 5.16482 0.907118C5.14448 0.908577 5.12468 0.914188 5.10672 0.923581C5.08877 0.932975 5.07306 0.945941 5.06062 0.961632C4.99156 1.03528 5.0166 1.10892 5.07276 1.17226C5.12892 1.2356 5.19722 1.30041 5.26173 1.36301L9.7135 5.6927C10.4041 6.36509 10.4034 7.00803 9.7135 7.68116C9.09221 8.28506 8.47116 8.88872 7.85038 9.49213C7.21061 10.1115 6.52835 10.1152 5.89163 9.49729C4.38595 8.03368 2.88103 6.56885 1.37686 5.10279C1.31995 5.04755 1.26303 4.99158 1.20307 4.93929C1.19025 4.924 1.17439 4.91136 1.15644 4.90212C1.13849 4.89289 1.11881 4.88724 1.09856 4.88553C1.07832 4.88381 1.05793 4.88605 1.0386 4.89213C1.01927 4.8982 1.00139 4.90798 0.986026 4.92088C0.955808 4.94804 0.937234 4.98525 0.933999 5.02509C0.930765 5.06494 0.943107 5.10451 0.968571 5.13593C1.00677 5.19357 1.05021 5.2478 1.09834 5.29795C2.78085 7.24222 4.4497 9.20123 6.15421 11.1241C6.76134 11.8135 7.61284 12.0705 8.53567 12.0963C9.25133 12.1169 9.96925 12.055 10.6826 12.139C11.4726 12.2265 12.2049 12.5832 12.7491 13.1457C13.0299 13.4278 13.3009 13.7187 13.5673 14.014C13.7896 14.2608 13.7896 14.5067 13.5847 14.6931C13.3798 14.8794 13.1134 14.8499 12.8895 14.6246C12.6786 14.4132 12.4752 14.1945 12.2771 13.9721C11.6935 13.3173 10.9596 13.0073 10.0687 12.9999C9.2832 12.9933 8.49166 13.0669 7.71605 12.9211C6.78942 12.7481 5.98725 12.3452 5.37101 11.633C3.6832 9.68877 1.99892 7.744 0.318184 5.79875C-0.27832 5.10794 -0.000558738 4.18736 0.854734 3.99882C1.29111 3.90235 1.63793 4.07247 1.94149 4.36706C3.43908 5.82624 4.93818 7.28371 6.4388 8.73946C6.48813 8.78807 6.53974 8.8352 6.59058 8.88676C6.77803 9.08781 6.95562 9.07971 7.15901 8.89265C7.29409 8.76818 7.29561 8.69822 7.15901 8.57081C6.66496 8.10757 6.18457 7.63034 5.69886 7.15827C4.50585 6.00103 3.31436 4.84232 2.12439 3.68214C2.03587 3.60228 1.95649 3.51339 1.88761 3.41701C1.82855 3.33508 1.80312 3.2347 1.81632 3.13554C1.82951 3.03637 1.88038 2.94555 1.95895 2.88087C2.02661 2.80588 2.12044 2.75778 2.22241 2.74582C2.32438 2.73386 2.42731 2.75887 2.51144 2.81606C2.61014 2.88391 2.70121 2.96167 2.78313 3.04804C4.43755 4.65894 6.08995 6.27132 7.74033 7.88516C7.9293 8.07075 8.02948 8.07664 8.20023 7.88516C8.30193 7.7688 8.28599 7.71356 8.18581 7.6274C8.08564 7.54123 7.9847 7.43518 7.88225 7.33797L3.15499 2.73357C3.07332 2.66047 2.99723 2.58171 2.92732 2.4979C2.77554 2.29832 2.77554 2.09137 2.95692 1.90873C3.1383 1.72608 3.34927 1.72388 3.55797 1.86454C3.64604 1.93072 3.7276 2.00468 3.80159 2.08548C5.45803 3.69491 7.11524 5.3036 8.77321 6.91155C8.8491 6.9852 8.91057 7.19804 9.09195 7.00656C9.23387 6.85926 9.38945 6.71933 9.22173 6.50208C9.16288 6.43472 9.09895 6.3717 9.03048 6.31354C7.52683 4.84895 6.02165 3.38485 4.51496 1.92125C4.2539 1.6679 4.07479 1.39026 4.08845 1.01687C4.1097 0.446104 4.57795 -0.000194764 5.25035 -0.000194764Z" fill="#DDDDDD"/>
</g>
<defs>
<clipPath id="clip0_1168_1878">
<rect width="31" height="30" fill="white"/>
</clipPath>
</defs>
</svg>
