<svg width="18" height="18" viewBox="0 0 18 18" fill="none" xmlns="http://www.w3.org/2000/svg">
<mask id="mask0_3462_2327" style="mask-type:alpha" maskUnits="userSpaceOnUse" x="0" y="0" width="18" height="18">
<rect width="18" height="18" fill="#D9D9D9"/>
</mask>
<g mask="url(#mask0_3462_2327)">
<path d="M6.75 9.75H7.5V8.25H8.25C8.4625 8.25 8.64075 8.178 8.78475 8.034C8.92825 7.8905 9 7.7125 9 7.5V6.75C9 6.5375 8.92825 6.35925 8.78475 6.21525C8.64075 6.07175 8.4625 6 8.25 6H6.75V9.75ZM7.5 7.5V6.75H8.25V7.5H7.5ZM9.75 9.75H11.25C11.4625 9.75 11.6408 9.678 11.7848 9.534C11.9283 9.3905 12 9.2125 12 9V6.75C12 6.5375 11.9283 6.35925 11.7848 6.21525C11.6408 6.07175 11.4625 6 11.25 6H9.75V9.75ZM10.5 9V6.75H11.25V9H10.5ZM12.75 9.75H13.5V8.25H14.25V7.5H13.5V6.75H14.25V6H12.75V9.75ZM6 13.5C5.5875 13.5 5.2345 13.3533 4.941 13.0598C4.647 12.7658 4.5 12.4125 4.5 12V3C4.5 2.5875 4.647 2.23425 4.941 1.94025C5.2345 1.64675 5.5875 1.5 6 1.5H15C15.4125 1.5 15.7658 1.64675 16.0598 1.94025C16.3533 2.23425 16.5 2.5875 16.5 3V12C16.5 12.4125 16.3533 12.7658 16.0598 13.0598C15.7658 13.3533 15.4125 13.5 15 13.5H6ZM6 12H15V3H6V12ZM3 16.5C2.5875 16.5 2.2345 16.3533 1.941 16.0598C1.647 15.7658 1.5 15.4125 1.5 15V4.5H3V15H13.5V16.5H3Z" fill="#7C7C7C"/>
</g>
</svg>
