<svg width="61" height="61" viewBox="0 0 61 61" fill="none" xmlns="http://www.w3.org/2000/svg">
<path d="M0.699219 30.0093C0.699219 13.4407 14.1307 0.00927734 30.6992 0.00927734C47.2678 0.00927734 60.6992 13.4407 60.6992 30.0093C60.6992 46.5778 47.2678 60.0093 30.6992 60.0093C14.1307 60.0093 0.699219 46.5778 0.699219 30.0093Z" fill="#ECECEC"/>
<path d="M47.1713 33.8532C47.1713 33.8075 47.1713 33.7618 47.1713 33.7161C47.1713 33.7161 47.1713 33.7161 47.1713 33.6627C46.4534 29.9268 44.5155 26.5348 41.6617 24.019C38.8079 21.5032 35.1996 20.006 31.403 19.7621C31.996 19.5402 32.5072 19.1425 32.8681 18.6223C33.229 18.102 33.4224 17.484 33.4226 16.8509C33.4226 16.0242 33.0942 15.2314 32.5097 14.6468C31.9251 14.0623 31.1323 13.7339 30.3055 13.7339C29.4781 13.7339 28.6845 14.062 28.0987 14.6464C27.513 15.2307 27.1829 16.0235 27.1808 16.8509C27.1821 17.4838 27.376 18.1013 27.7368 18.6213C28.0975 19.1414 28.6081 19.5392 29.2005 19.7621C25.4124 20.0113 21.8136 21.5082 18.9664 24.0189C16.1191 26.5297 14.1837 29.9129 13.4626 33.6399C13.4626 33.6399 13.4626 33.6399 13.4626 33.6856C13.4591 33.7338 13.4591 33.7822 13.4626 33.8304C13.4552 33.9446 13.4552 34.0591 13.4626 34.1733C13.4626 34.1733 13.4626 34.219 13.4626 34.2419C13.4626 34.2648 13.4626 34.3791 13.4626 34.4553C13.4686 34.5762 13.4865 34.6961 13.516 34.8135L13.5617 34.9659C13.6057 35.1016 13.6592 35.234 13.7218 35.3622L13.7675 35.4384C13.8452 35.5908 13.9398 35.7339 14.0495 35.8652C14.2922 36.1702 14.5988 36.4184 14.9477 36.5922C15.2966 36.766 15.6794 36.8612 16.0691 36.8711H44.5344C44.9251 36.8702 45.3108 36.783 45.6639 36.6157C46.017 36.4484 46.3287 36.2051 46.5769 35.9033C46.6863 35.7702 46.7833 35.6274 46.8665 35.4765V35.4079C46.9289 35.2745 46.9824 35.137 47.0265 34.9964L47.0722 34.8516C47.1012 34.7312 47.1216 34.609 47.1332 34.4858C47.137 34.4172 47.137 34.3485 47.1332 34.28C47.1369 34.2573 47.1369 34.2341 47.1332 34.2114C47.1542 34.0931 47.1669 33.9734 47.1713 33.8532ZM19.7349 31.5669C20.7179 29.6156 22.2235 27.9756 24.0838 26.8297C25.9442 25.6838 28.0863 25.0771 30.2713 25.0771C32.4562 25.0771 34.5983 25.6838 36.4587 26.8297C38.319 27.9756 39.8246 29.6156 40.8076 31.5669H19.7349Z" fill="white"/>
</svg>
