<svg width="24" height="22" viewBox="0 0 24 22" fill="none" xmlns="http://www.w3.org/2000/svg">
<path fill-rule="evenodd" clip-rule="evenodd" d="M21.6118 18.9316L20.4281 12.1252L13.1243 12.1252C12.503 12.1252 11.9993 11.6215 11.9993 11.0002C11.9993 10.3789 12.503 9.87518 13.1243 9.87518L20.4281 9.87518L21.6118 3.06884L3.10523 11.0002L21.6118 18.9316ZM22.5162 11.0002L23.9038 18.9789C24.016 19.624 23.8073 20.2832 23.3443 20.7462C22.7627 21.3278 21.8854 21.4968 21.1293 21.1727L1.02578 12.5569C0.403131 12.29 -0.000670324 11.6777 -0.000670383 11.0002C-0.000670442 10.3227 0.40313 9.71032 1.02578 9.44342L21.1293 0.82769C21.8854 0.503542 22.7627 0.67259 23.3443 1.25414C23.8073 1.71719 24.016 2.37644 23.9038 3.02144L22.5162 11.0002Z" fill="#664ECA"/>
</svg>
