<svg width="61" height="61" viewBox="0 0 61 61" fill="none" xmlns="http://www.w3.org/2000/svg">
<path d="M0.699219 30.2754C0.699219 13.7068 14.1307 0.275391 30.6992 0.275391C47.2678 0.275391 60.6992 13.7068 60.6992 30.2754C60.6992 46.8439 47.2678 60.2754 30.6992 60.2754C14.1307 60.2754 0.699219 46.8439 0.699219 30.2754Z" fill="#664ECA"/>
<path d="M47.1713 34.1194C47.1713 34.0736 47.1713 34.0279 47.1713 33.9822C47.1713 33.9822 47.1713 33.9822 47.1713 33.9288C46.4534 30.1929 44.5155 26.8009 41.6617 24.2851C38.8079 21.7694 35.1996 20.2721 31.403 20.0282C31.996 19.8063 32.5072 19.4086 32.8681 18.8884C33.229 18.3681 33.4224 17.7501 33.4226 17.117C33.4226 16.2903 33.0942 15.4975 32.5097 14.9129C31.9251 14.3284 31.1323 14 30.3055 14C29.4781 14 28.6845 14.3281 28.0987 14.9125C27.513 15.4968 27.1829 16.2896 27.1808 17.117C27.1821 17.7499 27.376 18.3674 27.7368 18.8874C28.0975 19.4075 28.6081 19.8054 29.2005 20.0282C25.4124 20.2774 21.8136 21.7743 18.9664 24.2851C16.1191 26.7958 14.1837 30.179 13.4626 33.906C13.4626 33.906 13.4626 33.906 13.4626 33.9517C13.4591 33.9999 13.4591 34.0483 13.4626 34.0965C13.4552 34.2107 13.4552 34.3252 13.4626 34.4394C13.4626 34.4394 13.4626 34.4852 13.4626 34.508C13.4626 34.5309 13.4626 34.6452 13.4626 34.7214C13.4686 34.8423 13.4865 34.9622 13.516 35.0796L13.5617 35.232C13.6057 35.3677 13.6592 35.5001 13.7218 35.6283L13.7675 35.7045C13.8452 35.8569 13.9398 36 14.0495 36.1313C14.2922 36.4364 14.5988 36.6845 14.9477 36.8583C15.2966 37.0321 15.6794 37.1273 16.0691 37.1373H44.5344C44.9251 37.1363 45.3108 37.0491 45.6639 36.8818C46.017 36.7145 46.3287 36.4712 46.5769 36.1694C46.6863 36.0364 46.7833 35.8935 46.8665 35.7426V35.674C46.9289 35.5406 46.9824 35.4031 47.0265 35.2625L47.0722 35.1177C47.1012 34.9974 47.1216 34.8751 47.1332 34.7519C47.137 34.6834 47.137 34.6147 47.1332 34.5461C47.1369 34.5234 47.1369 34.5003 47.1332 34.4775C47.1542 34.3592 47.1669 34.2395 47.1713 34.1194ZM19.7349 31.8331C20.7179 29.8817 22.2235 28.2417 24.0838 27.0958C25.9442 25.9499 28.0863 25.3432 30.2713 25.3432C32.4562 25.3432 34.5983 25.9499 36.4587 27.0958C38.319 28.2417 39.8246 29.8817 40.8076 31.8331H19.7349Z" fill="white"/>
</svg>
