<svg width="37" height="37" viewBox="0 0 37 37" fill="none" xmlns="http://www.w3.org/2000/svg">
<path fill-rule="evenodd" clip-rule="evenodd" d="M18.6584 6.24757C14.4264 6.24757 10.9956 9.67829 10.9956 13.9103C10.9956 18.1423 14.4264 21.573 18.6584 21.573C22.8904 21.573 26.3211 18.1423 26.3211 13.9103C26.3211 9.67829 22.8904 6.24757 18.6584 6.24757ZM13.4154 13.9103C13.4154 11.0147 15.7628 8.66738 18.6584 8.66738C21.5539 8.66738 23.9013 11.0147 23.9013 13.9103C23.9013 16.8059 21.5539 19.1532 18.6584 19.1532C15.7628 19.1532 13.4154 16.8059 13.4154 13.9103Z" fill="#DDDDDD"/>
<path fill-rule="evenodd" clip-rule="evenodd" d="M18.6584 1.40796C9.08066 1.40796 1.31641 9.17222 1.31641 18.7499C1.31641 23.6677 3.365 28.1091 6.65209 31.2636C9.7669 34.2529 13.9991 36.0919 18.6584 36.0919C23.3176 36.0919 27.5498 34.2529 30.6646 31.2636C33.9517 28.1091 36.0003 23.6677 36.0003 18.7499C36.0003 9.17222 28.2361 1.40796 18.6584 1.40796ZM3.73621 18.7499C3.73621 10.5086 10.4171 3.82777 18.6584 3.82777C26.8996 3.82777 33.5805 10.5086 33.5805 18.7499C33.5805 22.2906 32.3485 25.542 30.2878 28.1011C29.0069 25.6589 26.4478 23.9928 23.498 23.9928H13.8187C10.8689 23.9928 8.30986 25.6589 7.02891 28.1011C4.96825 25.542 3.73621 22.2906 3.73621 18.7499ZM23.498 26.4126C25.8111 26.4126 27.7763 27.9116 28.4717 29.9916C25.8476 32.2845 22.4161 33.6721 18.6584 33.6721C14.9006 33.6721 11.4691 32.2845 8.84502 29.9916C9.54038 27.9116 11.5056 26.4126 13.8187 26.4126H23.498Z" fill="#DDDDDD"/>
<path fill-rule="evenodd" clip-rule="evenodd" d="M18.6584 6.24757C14.4264 6.24757 10.9956 9.67829 10.9956 13.9103C10.9956 18.1423 14.4264 21.573 18.6584 21.573C22.8904 21.573 26.3211 18.1423 26.3211 13.9103C26.3211 9.67829 22.8904 6.24757 18.6584 6.24757ZM13.4154 13.9103C13.4154 11.0147 15.7628 8.66738 18.6584 8.66738C21.5539 8.66738 23.9013 11.0147 23.9013 13.9103C23.9013 16.8059 21.5539 19.1532 18.6584 19.1532C15.7628 19.1532 13.4154 16.8059 13.4154 13.9103Z" stroke="#F0F0F0"/>
<path fill-rule="evenodd" clip-rule="evenodd" d="M18.6584 1.40796C9.08066 1.40796 1.31641 9.17222 1.31641 18.7499C1.31641 23.6677 3.365 28.1091 6.65209 31.2636C9.7669 34.2529 13.9991 36.0919 18.6584 36.0919C23.3176 36.0919 27.5498 34.2529 30.6646 31.2636C33.9517 28.1091 36.0003 23.6677 36.0003 18.7499C36.0003 9.17222 28.2361 1.40796 18.6584 1.40796ZM3.73621 18.7499C3.73621 10.5086 10.4171 3.82777 18.6584 3.82777C26.8996 3.82777 33.5805 10.5086 33.5805 18.7499C33.5805 22.2906 32.3485 25.542 30.2878 28.1011C29.0069 25.6589 26.4478 23.9928 23.498 23.9928H13.8187C10.8689 23.9928 8.30986 25.6589 7.02891 28.1011C4.96825 25.542 3.73621 22.2906 3.73621 18.7499ZM23.498 26.4126C25.8111 26.4126 27.7763 27.9116 28.4717 29.9916C25.8476 32.2845 22.4161 33.6721 18.6584 33.6721C14.9006 33.6721 11.4691 32.2845 8.84502 29.9916C9.54038 27.9116 11.5056 26.4126 13.8187 26.4126H23.498Z" stroke="#F0F0F0"/>
</svg>
