<svg width="73" height="91" viewBox="0 0 73 91" fill="none" xmlns="http://www.w3.org/2000/svg">
<ellipse cx="36.3626" cy="58.857" rx="30.8899" ry="32.1422" fill="#FF6D4D" fill-opacity="0.15"/>
<rect opacity="0.01" width="72.3547" height="69.34" fill="white"/>
<path d="M36.1768 65.8739C40.1729 65.8739 43.4124 62.7694 43.4124 58.9398C43.4124 55.1103 40.1729 52.0059 36.1768 52.0059C32.1808 52.0059 28.9414 55.1103 28.9414 58.9398C28.9414 62.7694 32.1808 65.8739 36.1768 65.8739Z" fill="#FF5F33"/>
<path fill-rule="evenodd" clip-rule="evenodd" d="M36.1783 53.6933C33.1553 53.6933 30.7046 56.0419 30.7046 58.9389C30.7046 61.8359 33.1553 64.1844 36.1783 64.1844C39.2013 64.1844 41.6519 61.8359 41.6519 58.9389C41.6519 56.0419 39.2013 53.6933 36.1783 53.6933ZM27.1328 58.939C27.1328 54.1521 31.1821 50.2715 36.1771 50.2715C41.1722 50.2715 45.2215 54.1521 45.2215 58.939C45.2215 63.7259 41.1722 67.6065 36.1771 67.6065C31.1821 67.6065 27.1328 63.7259 27.1328 58.939Z" fill="white"/>
<path fill-rule="evenodd" clip-rule="evenodd" d="M34.3672 38.0527H37.9849V55.3877H34.3672V38.0527Z" fill="#FF5F33"/>
<path d="M36.1785 39.8711C46.1685 39.8711 54.2672 32.1101 54.2672 22.5362C54.2672 12.9623 46.1685 5.20117 36.1785 5.20117C26.1884 5.20117 18.0898 12.9623 18.0898 22.5362C18.0898 32.1101 26.1884 39.8711 36.1785 39.8711Z" fill="#FF5F33"/>
<path d="M36.1766 27.7369C39.1735 27.7369 41.6032 25.4085 41.6032 22.5364C41.6032 19.6643 39.1735 17.3359 36.1766 17.3359C33.1796 17.3359 30.75 19.6643 30.75 22.5364C30.75 25.4085 33.1796 27.7369 36.1766 27.7369Z" fill="white"/>
</svg>
