<svg width="4" height="8" viewBox="0 0 4 8" fill="none" xmlns="http://www.w3.org/2000/svg">
<path d="M3.83852 0.892307C4.05248 0.689466 4.05402 0.359122 3.84196 0.154464C3.6299 -0.0501953 3.28454 -0.0516691 3.07058 0.151172L1.76532 1.38859C1.2737 1.85464 0.8719 2.23554 0.58695 2.57493C0.290638 2.92785 0.0761418 3.28607 0.018843 3.71606C-0.00628099 3.9046 -0.00628095 4.0954 0.0188429 4.28394C0.0761418 4.71393 0.290638 5.07215 0.58695 5.42507C0.871899 5.76446 1.27369 6.14536 1.76531 6.6114L3.07058 7.84883C3.28454 8.05167 3.6299 8.0502 3.84196 7.84554C4.05402 7.64088 4.05248 7.31053 3.83852 7.10769L2.55636 5.89217C2.036 5.39886 1.67905 5.05936 1.43752 4.77168C1.20291 4.49224 1.12242 4.31275 1.101 4.152C1.08755 4.05107 1.08755 3.94893 1.101 3.848C1.12242 3.68725 1.20291 3.50776 1.43752 3.22832C1.67905 2.94065 2.036 2.60114 2.55636 2.10783L3.83852 0.892307Z" fill="#979797"/>
</svg>
