<svg width="16" height="16" viewBox="0 0 16 16" fill="none" xmlns="http://www.w3.org/2000/svg">
<path d="M8.61538 0.615384C8.61538 0.275517 8.33987 0 8 0C7.66013 0 7.38462 0.275517 7.38462 0.615384V11.1265C7.11987 10.8579 6.80513 10.4624 6.3471 9.88471L5.20015 8.43817C4.989 8.17186 4.60193 8.12715 4.33562 8.3383C4.0693 8.54946 4.02459 8.93653 4.23575 9.20284L5.406 10.6788C5.84348 11.2305 6.20449 11.6859 6.5276 12.0102C6.85918 12.3431 7.22721 12.619 7.6975 12.694C7.79769 12.7099 7.89876 12.7179 8 12.7179C8.10124 12.7179 8.20231 12.7099 8.3025 12.694C8.77279 12.619 9.14082 12.3431 9.4724 12.0102C9.79551 11.6859 10.1565 11.2306 10.594 10.6788L11.7642 9.20284C11.9754 8.93653 11.9307 8.54946 11.6644 8.3383C11.3981 8.12715 11.011 8.17186 10.7998 8.43817L9.6529 9.88471C9.19487 10.4624 8.88013 10.8579 8.61538 11.1265V0.615384Z" fill="#2F2A43"/>
<path d="M15.0564 6.80989C14.8523 6.53815 14.4666 6.48332 14.1948 6.68744C13.9231 6.89156 13.8682 7.27732 14.0724 7.54907C14.5101 8.13183 14.7692 8.85527 14.7692 9.64102V10.4615C14.7692 11.2473 14.7673 11.5685 14.7263 11.8276C14.49 13.3197 13.3197 14.49 11.8276 14.7263C11.5686 14.7673 11.2473 14.7692 10.4615 14.7692H5.53846C4.75269 14.7692 4.43145 14.7673 4.17244 14.7263C2.6803 14.49 1.51004 13.3197 1.27371 11.8276C1.23268 11.5685 1.23077 11.2473 1.23077 10.4615V9.64102C1.23077 8.85527 1.48991 8.13183 1.92764 7.54907C2.13176 7.27732 2.07694 6.89156 1.80519 6.68744C1.53344 6.48332 1.14768 6.53815 0.943562 6.80989C0.351238 7.59847 6.8353e-06 8.57962 6.8353e-06 9.64102L3.36295e-06 10.5278C-5.20968e-05 11.2269 -8.58428e-05 11.6528 0.0580926 12.0201C0.377835 14.0389 1.96113 15.6222 3.9799 15.9419C4.34723 16.0001 4.77307 16 5.47217 16H10.5278C11.2269 16 11.6528 16.0001 12.0201 15.9419C14.0389 15.6222 15.6222 14.0389 15.9419 12.0201C16.0001 11.6528 16.0001 11.2269 16 10.5278L16 9.64102C16 8.57962 15.6488 7.59847 15.0564 6.80989Z" fill="#2F2A43"/>
</svg>
