<svg width="16" height="16" viewBox="0 0 16 16" fill="none" xmlns="http://www.w3.org/2000/svg">
<path d="M8.61539 3.89744C8.61539 3.55757 8.33987 3.28205 8 3.28205C7.66013 3.28205 7.38462 3.55757 7.38462 3.89744V12.1026C7.38462 12.4424 7.66013 12.7179 8 12.7179C8.33987 12.7179 8.61539 12.4424 8.61539 12.1026V3.89744Z" fill="#2F2A43"/>
<path d="M11.8974 7.17949C11.8974 6.83962 11.6219 6.5641 11.2821 6.5641C10.9422 6.5641 10.6667 6.83962 10.6667 7.17949V12.1026C10.6667 12.4424 10.9422 12.7179 11.2821 12.7179C11.6219 12.7179 11.8974 12.4424 11.8974 12.1026V7.17949Z" fill="#2F2A43"/>
<path d="M5.33333 8.82051C5.33333 8.48065 5.05782 8.20513 4.71795 8.20513C4.37808 8.20513 4.10256 8.48065 4.10256 8.82051V12.1026C4.10256 12.4424 4.37808 12.7179 4.71795 12.7179C5.05782 12.7179 5.33333 12.4424 5.33333 12.1026V8.82051Z" fill="#2F2A43"/>
<path fill-rule="evenodd" clip-rule="evenodd" d="M11.6624 0.101521C10.7252 -1.19209e-05 9.54403 -6.59159e-06 8.03713 1.08584e-07H7.96287C6.45597 -6.59159e-06 5.27476 -1.19209e-05 4.33762 0.101521C3.38128 0.205133 2.60641 0.420369 1.94481 0.901048C1.54428 1.19205 1.19205 1.54428 0.901048 1.94481C0.420369 2.60641 0.205133 3.38128 0.101521 4.33762C-1.19209e-05 5.27476 -6.59159e-06 6.45597 1.08584e-07 7.96287V8.03713C-6.59159e-06 9.54403 -1.19209e-05 10.7252 0.101521 11.6624C0.205133 12.6187 0.420369 13.3936 0.901048 14.0552C1.19205 14.4557 1.54428 14.808 1.94481 15.099C2.60641 15.5796 3.38128 15.7949 4.33762 15.8985C5.27474 16 6.45593 16 7.96279 16H8.03715C9.54401 16 10.7253 16 11.6624 15.8985C12.6187 15.7949 13.3936 15.5796 14.0552 15.099C14.4557 14.808 14.808 14.4557 15.099 14.0552C15.5796 13.3936 15.7949 12.6187 15.8985 11.6624C16 10.7253 16 9.54407 16 8.03721V7.96285C16 6.45599 16 5.27474 15.8985 4.33762C15.7949 3.38128 15.5796 2.60641 15.099 1.94481C14.808 1.54428 14.4557 1.19205 14.0552 0.901048C13.3936 0.420369 12.6187 0.205133 11.6624 0.101521ZM2.66824 1.89676C3.08506 1.59392 3.61857 1.4174 4.47019 1.32513C5.33333 1.23161 6.44794 1.23077 8 1.23077C9.55206 1.23077 10.6667 1.23161 11.5298 1.32513C12.3814 1.4174 12.9149 1.59392 13.3318 1.89676C13.6278 2.11185 13.8882 2.37219 14.1032 2.66824C14.4061 3.08506 14.5826 3.61857 14.6749 4.47019C14.7684 5.33333 14.7692 6.44794 14.7692 8C14.7692 9.55206 14.7684 10.6667 14.6749 11.5298C14.5826 12.3814 14.4061 12.9149 14.1032 13.3318C13.8882 13.6278 13.6278 13.8882 13.3318 14.1032C12.9149 14.4061 12.3814 14.5826 11.5298 14.6749C10.6667 14.7684 9.55206 14.7692 8 14.7692C6.44794 14.7692 5.33333 14.7684 4.47019 14.6749C3.61857 14.5826 3.08506 14.4061 2.66824 14.1032C2.37219 13.8882 2.11185 13.6278 1.89676 13.3318C1.59392 12.9149 1.4174 12.3814 1.32513 11.5298C1.23161 10.6667 1.23077 9.55206 1.23077 8C1.23077 6.44794 1.23161 5.33333 1.32513 4.47019C1.4174 3.61857 1.59392 3.08506 1.89676 2.66824C2.11185 2.37219 2.37219 2.11185 2.66824 1.89676Z" fill="#2F2A43"/>
</svg>
