<svg width="15" height="16" viewBox="0 0 15 16" fill="none" xmlns="http://www.w3.org/2000/svg">
<path fill-rule="evenodd" clip-rule="evenodd" d="M1.86321 0.508071C1.86445 0.22872 1.63901 0.0012515 1.35966 5.14256e-06C1.08031 -0.00124117 0.852837 0.224207 0.85159 0.503557L0.845484 1.87197C0.843199 2.38108 0.841293 2.80569 0.878574 3.14707C0.917678 3.50514 1.00508 3.83515 1.22694 4.12184C1.27497 4.1839 1.32687 4.24277 1.3823 4.29811C1.43702 4.35275 1.49519 4.40394 1.55646 4.45136C1.84315 4.67322 2.17316 4.76062 2.53123 4.79973C2.87261 4.83701 3.29721 4.8351 3.80631 4.83282L5.17474 4.82671C5.45409 4.82546 5.67954 4.598 5.6783 4.31864C5.67705 4.03929 5.44958 3.81385 5.17023 3.81509L3.83103 3.82107C3.28514 3.8235 2.91847 3.82437 2.64105 3.79408C2.62019 3.7918 2.60023 3.78938 2.58111 3.78682C3.72466 2.49744 5.39231 1.68605 7.25 1.68605C10.6954 1.68605 13.4884 4.47906 13.4884 7.92442C13.4884 8.20377 13.7148 8.43023 13.9942 8.43023C14.2735 8.43023 14.5 8.20377 14.5 7.92442C14.5 3.92035 11.2541 0.674419 7.25 0.674419C5.12372 0.674419 3.21086 1.59033 1.88537 3.04755L1.88422 3.03725C1.85393 2.75983 1.8548 2.39316 1.85723 1.84727L1.86321 0.508071Z" fill="#2F2A43"/>
<path d="M1.01163 7.92442C1.01163 7.64507 0.785167 7.4186 0.505814 7.4186C0.226461 7.4186 0 7.64507 0 7.92442C0 11.9285 3.24594 15.1744 7.25 15.1744C9.35265 15.1744 11.2466 14.2788 12.5702 12.8497C12.5916 13.1154 12.5907 13.4599 12.5885 13.9473L12.5825 15.2865C12.5813 15.5659 12.8067 15.7934 13.0861 15.7946C13.3654 15.7958 13.5929 15.5704 13.5942 15.291L13.6003 13.9226C13.6025 13.4135 13.6045 12.9889 13.5672 12.6475C13.5281 12.2895 13.4407 11.9595 13.2188 11.6728C13.1772 11.619 13.1326 11.5675 13.0854 11.5188C13.0243 11.4557 12.9588 11.3971 12.8893 11.3432C12.6026 11.1214 12.2726 11.034 11.9145 10.9949C11.5731 10.9576 11.1485 10.9595 10.6395 10.9618L9.271 10.9679C8.99165 10.9691 8.7662 11.1966 8.76745 11.476C8.7687 11.7553 8.99617 11.9808 9.27552 11.9795L10.6147 11.9735C11.1606 11.9711 11.5273 11.9702 11.8047 12.0005C11.8607 12.0066 11.9102 12.0138 11.9542 12.0218C10.8098 13.3345 9.12691 14.1628 7.25 14.1628C3.80464 14.1628 1.01163 11.3698 1.01163 7.92442Z" fill="#2F2A43"/>
</svg>
